<?xml version="1.0" encoding="UTF-8"?>
<svg id="Capa_2" data-name="Capa 2" xmlns="http://www.w3.org/2000/svg" xmlns:xlink="http://www.w3.org/1999/xlink" viewBox="0 0 928.54 285.76">
  <defs>
    <style>
      .cls-1 {
        fill: #d2f3ff;
      }

      .cls-2 {
        fill: #0b6ff9;
      }

      .cls-3 {
        clip-path: url(#clippath);
      }

      .cls-4 {
        fill: none;
      }
    </style>
    <clipPath id="clippath">
      <circle class="cls-4" cx="125.31" cy="160.45" r="125.31"/>
    </clipPath>
  </defs>
  <g id="Capa_1-2" data-name="Capa 1">
    <g>
      <g>
        <path class="cls-1" d="m337.39,183.45c-5.5,0-10.31-.89-14.41-2.67-4.11-1.78-7.54-4.21-10.29-7.3-2.75-3.09-4.83-6.56-6.22-10.41-1.4-3.85-2.09-7.85-2.09-12,0-6.1,1.4-11.51,4.19-16.25,2.79-4.74,6.67-8.46,11.62-11.18,4.95-2.71,10.65-4.06,17.08-4.06,4.57,0,8.59.72,12.06,2.16,3.47,1.44,6.37,3.32,8.7,5.65,2.33,2.33,4.11,4.89,5.33,7.68,1.23,2.79,1.84,5.5,1.84,8.13,0,4.49-1.08,7.75-3.24,9.78-2.16,2.03-4.85,3.05-8.06,3.05h-33.53c.08,2.88.99,5.38,2.73,7.49,1.73,2.12,3.94,3.75,6.6,4.89,2.67,1.14,5.4,1.71,8.19,1.71,2.12,0,4-.13,5.65-.38,1.65-.25,3.07-.57,4.25-.95,1.18-.38,2.22-.78,3.11-1.21.89-.42,1.71-.8,2.48-1.14.76-.34,1.48-.55,2.16-.63.93-.08,1.86.13,2.79.63.93.51,1.69,1.4,2.29,2.67.51.85.87,1.63,1.08,2.35.21.72.32,1.42.32,2.09,0,1.7-1.02,3.28-3.05,4.76-2.03,1.48-4.89,2.71-8.57,3.68-3.68.97-8.02,1.46-13.02,1.46Zm-17.02-36.45h26.03c1.44,0,2.54-.23,3.3-.7.76-.46,1.14-1.46,1.14-2.98,0-1.95-.59-3.7-1.78-5.27-1.19-1.57-2.79-2.79-4.83-3.68-2.03-.89-4.4-1.33-7.11-1.33-3.13,0-5.97.62-8.51,1.84-2.54,1.23-4.55,2.9-6.03,5.02-1.48,2.12-2.22,4.49-2.22,7.11Z"/>
        <path class="cls-1" d="m401.27,181.8c-3.89,0-7.58-.76-11.05-2.29-3.47-1.52-6.52-3.66-9.14-6.41-2.62-2.75-4.7-5.99-6.22-9.71-1.52-3.72-2.29-7.79-2.29-12.19s.76-8.36,2.29-12.13c1.52-3.77,3.62-7.09,6.29-9.97,2.67-2.88,5.74-5.12,9.21-6.73,3.47-1.61,7.11-2.41,10.92-2.41,4.06,0,7.7.81,10.92,2.41,3.22,1.61,5.95,3.81,8.19,6.6,2.24,2.79,3.96,6.08,5.14,9.84,1.18,3.77,1.82,7.81,1.9,12.13,0,4.32-.57,8.34-1.71,12.07-1.14,3.73-2.84,7.01-5.08,9.84-2.24,2.84-5,5.04-8.25,6.6-3.26,1.57-6.96,2.35-11.11,2.35Zm2.03-14.22c2.88,0,5.5-.7,7.87-2.1,2.37-1.4,4.25-3.34,5.65-5.84,1.4-2.5,2.1-5.31,2.1-8.44s-.7-6.03-2.1-8.45c-1.4-2.41-3.26-4.34-5.59-5.78-2.33-1.44-4.97-2.16-7.94-2.16s-5.63.7-8,2.1c-2.37,1.4-4.25,3.32-5.65,5.78-1.4,2.46-2.09,5.29-2.09,8.51s.7,5.95,2.09,8.44c1.4,2.5,3.3,4.45,5.71,5.84,2.41,1.4,5.06,2.1,7.94,2.1Zm23.37,40.64c-2.37,0-4.11-.34-5.21-1.02-1.1-.68-1.78-1.59-2.03-2.73s-.38-2.43-.38-3.87v-76.07c.34-1.1.83-1.97,1.46-2.6.63-.63,1.48-1.1,2.54-1.4,1.06-.3,2.31-.44,3.75-.44,2.29,0,3.96.36,5.02,1.08,1.06.72,1.71,1.63,1.97,2.73.25,1.1.38,2.37.38,3.81v73.02c0,1.44-.13,2.71-.38,3.81-.25,1.1-.91,1.99-1.97,2.67-1.06.68-2.77,1.02-5.14,1.02Z"/>
        <path class="cls-1" d="m472.64,182.57c-3.89,0-7.47-.7-10.73-2.09-3.26-1.4-6.12-3.41-8.57-6.03-2.46-2.62-4.36-5.76-5.72-9.4-1.35-3.64-2.03-7.66-2.03-12.06v-25.27c0-1.44.13-2.73.38-3.87s.93-2.05,2.03-2.73c1.1-.68,2.79-1.02,5.08-1.02,2.46,0,4.21.34,5.27,1.02,1.06.68,1.71,1.61,1.97,2.79.25,1.19.38,2.5.38,3.94v25.15c0,3.05.53,5.67,1.59,7.87,1.06,2.2,2.6,3.92,4.63,5.14,2.03,1.23,4.53,1.84,7.49,1.84s5.65-.61,7.81-1.84c2.16-1.23,3.83-2.96,5.02-5.21,1.18-2.24,1.78-4.85,1.78-7.81v-25.4c0-1.44.13-2.73.38-3.87s.93-2.03,2.03-2.67c1.1-.63,2.83-.95,5.21-.95s4.06.34,5.08,1.02c1.02.68,1.67,1.61,1.97,2.79.3,1.19.44,2.46.44,3.81v47.62c0,1.27-.15,2.46-.44,3.56-.3,1.1-.97,1.99-2.03,2.67-1.06.68-2.77,1.02-5.14,1.02-1.7,0-3.03-.19-4-.57-.97-.38-1.69-.89-2.16-1.52-.47-.64-.76-1.29-.89-1.97-.13-.68-.19-1.35-.19-2.03l1.02-3.43c-.51.76-1.27,1.67-2.29,2.73-1.02,1.06-2.27,2.12-3.75,3.17-1.48,1.06-3.2,1.93-5.14,2.6-1.95.68-4.11,1.02-6.48,1.02Z"/>
        <path class="cls-1" d="m524.83,107.89c-2.46,0-4.25-.36-5.4-1.08-1.14-.72-1.86-1.71-2.16-2.98-.3-1.27-.44-2.67-.44-4.19,0-1.61.15-3,.44-4.19.3-1.18,1.04-2.14,2.22-2.86,1.18-.72,3-1.08,5.46-1.08s4.36.38,5.46,1.14c1.1.76,1.82,1.76,2.16,2.98.34,1.23.51,2.65.51,4.25,0,1.44-.17,2.79-.51,4.06-.34,1.27-1.06,2.24-2.16,2.92-1.1.68-2.96,1.02-5.59,1.02Zm0,74.8c-2.29,0-3.98-.36-5.08-1.08-1.1-.72-1.78-1.65-2.03-2.79s-.38-2.43-.38-3.87v-47.24c0-1.35.15-2.6.44-3.75.29-1.14.97-2.05,2.03-2.73,1.06-.68,2.77-1.02,5.14-1.02s4.08.34,5.14,1.02c1.06.68,1.71,1.61,1.97,2.79.25,1.19.38,2.5.38,3.94v47.12c0,1.44-.13,2.73-.38,3.87-.25,1.14-.91,2.05-1.97,2.73-1.06.68-2.82,1.02-5.27,1.02Z"/>
        <path class="cls-1" d="m568.14,182.69c-3.13,0-5.91-.21-8.32-.63-2.41-.42-4.49-1.14-6.22-2.16-1.74-1.02-3.16-2.39-4.25-4.13-1.1-1.73-1.93-3.87-2.48-6.41-.55-2.54-.83-5.59-.83-9.14v-61.21c0-1.44.15-2.73.44-3.87.3-1.14.97-2.07,2.03-2.79,1.06-.72,2.77-1.08,5.14-1.08s4.08.34,5.14,1.02c1.06.68,1.73,1.59,2.03,2.73.3,1.14.44,2.43.44,3.87v60.7c0,1.61.11,2.94.32,4,.21,1.06.59,1.9,1.14,2.54.55.63,1.27,1.08,2.16,1.33.89.25,1.97.38,3.24.38,1.1,0,2.1.13,2.98.38.89.25,1.61.89,2.16,1.91.55,1.02.83,2.67.83,4.95s-.28,4.11-.83,5.21c-.55,1.1-1.29,1.78-2.22,2.03-.93.25-1.91.38-2.92.38Z"/>
        <path class="cls-1" d="m591.37,107.89c-2.46,0-4.25-.36-5.4-1.08-1.14-.72-1.86-1.71-2.16-2.98-.3-1.27-.44-2.67-.44-4.19,0-1.61.15-3,.44-4.19.3-1.18,1.04-2.14,2.22-2.86,1.18-.72,3-1.08,5.46-1.08s4.36.38,5.46,1.14c1.1.76,1.82,1.76,2.16,2.98.34,1.23.51,2.65.51,4.25,0,1.44-.17,2.79-.51,4.06-.34,1.27-1.06,2.24-2.16,2.92-1.1.68-2.96,1.02-5.59,1.02Zm0,74.8c-2.29,0-3.98-.36-5.08-1.08-1.1-.72-1.78-1.65-2.03-2.79s-.38-2.43-.38-3.87v-47.24c0-1.35.15-2.6.44-3.75.29-1.14.97-2.05,2.03-2.73,1.06-.68,2.77-1.02,5.14-1.02s4.08.34,5.14,1.02c1.06.68,1.71,1.61,1.97,2.79.25,1.19.38,2.5.38,3.94v47.12c0,1.44-.13,2.73-.38,3.87-.25,1.14-.91,2.05-1.97,2.73-1.06.68-2.82,1.02-5.27,1.02Z"/>
        <path class="cls-1" d="m619.95,182.69c-2.29,0-3.98-.36-5.08-1.08-1.1-.72-1.78-1.65-2.03-2.79s-.38-2.43-.38-3.87v-75.69c0-1.44.13-2.73.38-3.87.25-1.14.93-2.05,2.03-2.73,1.1-.68,2.79-1.02,5.08-1.02s4.06.34,5.08,1.02c1.02.68,1.65,1.61,1.9,2.79.25,1.19.38,2.46.38,3.81v78.23c-.34,1.86-1.04,3.2-2.09,4-1.06.8-2.82,1.21-5.27,1.21Zm25.53-.13c-4.15,0-7.85-.83-11.11-2.48-3.26-1.65-6.01-3.92-8.25-6.79-2.24-2.88-3.94-6.2-5.08-9.97-1.14-3.77-1.71-7.81-1.71-12.13.08-4.32.72-8.36,1.9-12.13,1.18-3.77,2.9-7.07,5.14-9.91,2.24-2.84,4.97-5.06,8.19-6.67,3.22-1.61,6.86-2.41,10.92-2.41s7.56.81,10.98,2.41c3.43,1.61,6.48,3.83,9.14,6.67,2.67,2.84,4.76,6.14,6.29,9.91,1.52,3.77,2.29,7.77,2.29,12s-.76,8.53-2.29,12.38c-1.52,3.85-3.6,7.2-6.22,10.03-2.63,2.84-5.67,5.06-9.14,6.67-3.47,1.61-7.16,2.41-11.05,2.41Zm-2.03-14.86c2.96,0,5.63-.7,8-2.09,2.37-1.4,4.25-3.32,5.65-5.78,1.4-2.46,2.09-5.25,2.09-8.38s-.7-6.07-2.09-8.57c-1.4-2.5-3.28-4.45-5.65-5.84-2.37-1.4-5.04-2.1-8-2.1s-5.5.72-7.87,2.16c-2.37,1.44-4.25,3.39-5.65,5.84-1.4,2.46-2.1,5.29-2.1,8.51s.7,5.93,2.1,8.38c1.4,2.46,3.28,4.38,5.65,5.78,2.37,1.4,5,2.09,7.87,2.09Z"/>
        <path class="cls-1" d="m693.1,182.69c-2.29,0-3.96-.36-5.02-1.08-1.06-.72-1.71-1.67-1.97-2.86-.25-1.18-.38-2.5-.38-3.94v-47.12c0-1.52.13-2.86.38-4,.25-1.14.91-2.03,1.97-2.67,1.06-.63,2.77-.95,5.14-.95s3.96.3,5.02.89c1.06.59,1.73,1.33,2.03,2.22.3.89.45,1.76.45,2.6l-1.02,2.29c.42-.68,1.02-1.5,1.78-2.48.76-.97,1.78-1.95,3.05-2.92,1.27-.97,2.79-1.78,4.57-2.41,1.78-.63,3.89-.95,6.35-.95,1.02,0,2.09.11,3.24.32,1.14.21,2.29.51,3.43.89s2.18.87,3.11,1.46c.93.59,1.65,1.29,2.16,2.1.51.81.76,1.71.76,2.73,0,2.71-.68,5-2.03,6.86-1.35,1.86-2.96,2.79-4.83,2.79-1.27,0-2.2-.13-2.79-.38-.59-.25-1.08-.55-1.46-.89-.38-.34-.93-.63-1.65-.89-.72-.25-1.84-.38-3.37-.38-1.27,0-2.56.21-3.87.63-1.31.42-2.52,1.06-3.62,1.9-1.1.85-1.99,1.93-2.67,3.24-.68,1.31-1.02,2.82-1.02,4.51v30.86c0,1.44-.13,2.73-.38,3.87-.25,1.14-.93,2.05-2.03,2.73-1.1.68-2.88,1.02-5.33,1.02Z"/>
        <path class="cls-1" d="m746.43,107.89c-2.46,0-4.25-.36-5.4-1.08-1.14-.72-1.86-1.71-2.16-2.98-.3-1.27-.44-2.67-.44-4.19,0-1.61.15-3,.44-4.19.3-1.18,1.04-2.14,2.22-2.86,1.18-.72,3-1.08,5.46-1.08s4.36.38,5.46,1.14c1.1.76,1.82,1.76,2.16,2.98.34,1.23.51,2.65.51,4.25,0,1.44-.17,2.79-.51,4.06-.34,1.27-1.06,2.24-2.16,2.92-1.1.68-2.96,1.02-5.59,1.02Zm0,74.8c-2.29,0-3.98-.36-5.08-1.08-1.1-.72-1.78-1.65-2.03-2.79s-.38-2.43-.38-3.87v-47.24c0-1.35.15-2.6.44-3.75.29-1.14.97-2.05,2.03-2.73,1.06-.68,2.77-1.02,5.14-1.02s4.08.34,5.14,1.02c1.06.68,1.71,1.61,1.97,2.79.25,1.19.38,2.5.38,3.94v47.12c0,1.44-.13,2.73-.38,3.87-.25,1.14-.91,2.05-1.97,2.73-1.06.68-2.82,1.02-5.27,1.02Z"/>
        <path class="cls-1" d="m793.8,182.57c-3.89,0-7.47-.7-10.73-2.09-3.26-1.4-6.12-3.41-8.57-6.03-2.46-2.62-4.36-5.76-5.71-9.4-1.36-3.64-2.03-7.66-2.03-12.06v-25.27c0-1.44.13-2.73.38-3.87s.93-2.05,2.03-2.73c1.1-.68,2.79-1.02,5.08-1.02,2.46,0,4.21.34,5.27,1.02,1.06.68,1.71,1.61,1.97,2.79.25,1.19.38,2.5.38,3.94v25.15c0,3.05.53,5.67,1.59,7.87,1.06,2.2,2.6,3.92,4.63,5.14,2.03,1.23,4.53,1.84,7.49,1.84s5.65-.61,7.81-1.84c2.16-1.23,3.83-2.96,5.02-5.21,1.18-2.24,1.78-4.85,1.78-7.81v-25.4c0-1.44.13-2.73.38-3.87s.93-2.03,2.03-2.67c1.1-.63,2.83-.95,5.21-.95s4.06.34,5.08,1.02c1.02.68,1.67,1.61,1.97,2.79.3,1.19.44,2.46.44,3.81v47.62c0,1.27-.15,2.46-.44,3.56-.3,1.1-.97,1.99-2.03,2.67-1.06.68-2.77,1.02-5.14,1.02-1.7,0-3.03-.19-4-.57-.97-.38-1.69-.89-2.16-1.52-.47-.64-.76-1.29-.89-1.97-.13-.68-.19-1.35-.19-2.03l1.02-3.43c-.51.76-1.27,1.67-2.29,2.73-1.02,1.06-2.27,2.12-3.75,3.17-1.48,1.06-3.2,1.93-5.14,2.6-1.95.68-4.11,1.02-6.48,1.02Z"/>
        <path class="cls-1" d="m845.23,182.57c-2.29,0-3.96-.34-5.02-1.02-1.06-.68-1.71-1.61-1.97-2.79-.25-1.18-.38-2.45-.38-3.81v-47.5c0-1.35.13-2.58.38-3.68.25-1.1.93-1.99,2.03-2.67,1.1-.68,2.84-1.02,5.21-1.02s4.25.51,5.4,1.52c1.14,1.02,1.71,2.63,1.71,4.83l-1.14,3.56c.42-.93,1.14-1.95,2.16-3.05,1.02-1.1,2.26-2.2,3.75-3.3,1.48-1.1,3.15-1.99,5.02-2.67,1.86-.68,3.81-1.02,5.84-1.02,2.79,0,5.35.47,7.68,1.4,2.33.93,4.4,2.29,6.22,4.06,1.82,1.78,3.41,3.94,4.76,6.48,1.44-2.2,3.05-4.21,4.83-6.03,1.78-1.82,3.85-3.26,6.22-4.32,2.37-1.06,5.04-1.59,8-1.59,4.91,0,9.04,1.23,12.38,3.68,3.34,2.46,5.88,5.95,7.62,10.48,1.73,4.53,2.6,9.93,2.6,16.19v24.64c0,1.44-.15,2.73-.44,3.87-.3,1.14-.97,2.05-2.03,2.73-1.06.68-2.77,1.02-5.14,1.02s-4.11-.36-5.21-1.08c-1.1-.72-1.78-1.65-2.03-2.79-.25-1.14-.38-2.43-.38-3.87v-24.64c0-3.13-.38-5.84-1.14-8.13-.76-2.29-1.88-4.06-3.37-5.33-1.48-1.27-3.41-1.91-5.78-1.91-2.54,0-4.72.62-6.54,1.84-1.82,1.23-3.24,2.99-4.25,5.27-1.02,2.29-1.52,5.08-1.52,8.38v24.76c0,1.44-.21,2.77-.64,4-.42,1.23-1.25,2.16-2.48,2.79-1.23.63-2.99.87-5.27.7-2.12-.08-3.66-.51-4.64-1.27-.97-.76-1.57-1.71-1.78-2.86-.21-1.14-.32-2.35-.32-3.62v-24.64c0-3.13-.38-5.86-1.14-8.19-.76-2.33-1.88-4.11-3.37-5.33-1.48-1.23-3.45-1.84-5.91-1.84-2.63,0-4.85.68-6.67,2.03-1.82,1.35-3.2,3.17-4.13,5.46-.93,2.29-1.4,4.91-1.4,7.87v24.89c0,1.36-.15,2.62-.45,3.81-.3,1.19-.97,2.1-2.03,2.73-1.06.63-2.82.95-5.27.95Z"/>
      </g>
      <g>
        <path class="cls-1" d="m138.84,29.21c1.58.7,3.24,1.3,4.95,1.83l-1.34,7.42c2,.25,4,.56,6,.92,2.03.37,4.04.79,6.02,1.26l1.34-7.44c1.76.1,3.5.11,5.19.01,7.24-.43,16.86-1.85,20.39-9.19.43-.89.73-1.84.9-2.81.5-2.79.21-5.72-1.08-8.27-1.19-2.34-3.16-4.26-5.52-5.41l-.17-.07s-19.11-5.3-24.23,16.15l-.39,2.15c.07-.37.11-.72.16-1.08-.07.36-.16.7-.22,1.07l.39-2.15C153.94,1.72,134.18,0,134.18,0c-2.66.23-5.23,1.36-7.19,3.16-2.1,1.93-3.4,4.58-3.9,7.37-.18.97-.22,1.96-.14,2.94.74,8.11,9.26,12.8,15.89,15.74Z"/>
        <g class="cls-3">
          <circle class="cls-1" cx="125.31" cy="160.45" r="125.31"/>
          <circle class="cls-1" cx="125.31" cy="160.45" r="125.31"/>
          <path class="cls-2" d="m137.37,166.77c-2.65.29-5.17,1.78-6.37,4.35-2.4,5.08-12.04,16.26-12.04,16.26.29-2.78-.19-12.76-6.91-17.55-6.71-4.79-12.9,8.11-12.9,8.11-2.3,9.59-14.5,18.29-14.5,18.29-2.78-2.91-5.38-6.43-7.73-10.65,0,0-8.29-9.59-14.77-3.07-6.48,6.52-1.64,19.95-1.64,19.95,0,0-11.07-13.04-16.2-13.04,0,0-9.59.03-10.65,10.24-.16.02-.48.05-.91.13-.5-1.43-8.69-25.65,7.07-37.6,16.24-12.32,32.61-4.39,32.61-4.39,0,0,8.82-25.32,28.26-24.55,19.44.77,35,16.07,36.68,33.54Z"/>
          <g>
            <path class="cls-2" d="m72.57,185c-.08-.07-.11-.09,0,0h0Z"/>
            <path class="cls-2" d="m163.59,162.2c-.9,2.05-1.9,4.07-2.91,6.06-2.37,4.67-4.95,9.23-7.78,13.63-.82,1.28-1.67,2.54-2.54,3.79-.24.34-.48.67-.72,1.01.14-1.45.18-2.91.15-4.37-.06-2.54-.3-5.11-.84-7.6-.43-1.94-1.04-3.98-2.16-5.64-1.48-2.21-4.08-3.51-6.66-3.88-2.99-.42-6.12.35-8.58,2.09-1.21.85-2.19,1.99-2.91,3.28-.45.81-.84,1.63-1.32,2.42-.06.09-.12.19-.18.28-.15.23-.3.46-.46.69-.32.48-.64.95-.97,1.42-.7.99-1.43,1.97-2.16,2.94-.88,1.15-1.78,2.29-2.69,3.41-.38-2.45-1.1-4.8-2.18-7.03-1.21-2.49-3.07-4.92-5.47-6.37-2.48-1.5-5.37-1.49-7.96-.28-3.71,1.72-6.32,5.44-8.23,8.93-.15.28-.33.56-.45.85-.11.27-.16.58-.24.87,0,0,0,0,0,.01,0,.02-.02.05-.03.09-.06.19-.12.38-.19.57-.22.64-.48,1.27-.77,1.88-.29.63-.62,1.24-.97,1.83-.16.27-.31.56-.49.81-.02.03-.05.07-.07.11-.12.18-.23.35-.35.52-.79,1.14-1.65,2.23-2.56,3.28-.86.99-1.76,1.94-2.69,2.86-.1.1-.21.2-.31.3,0,0,0,0,0,0-.22.2-.43.41-.65.61-.4.36-.8.72-1.2,1.07-.36.31-.73.62-1.1.92-.34-.39-.67-.79-.99-1.2-1.19-1.49-2.3-3.05-3.32-4.66-.53-.84-1.04-1.7-1.53-2.57-.13-.24-.22-.39-.39-.58-1.36-1.48-2.97-2.81-4.7-3.83-2.81-1.66-6.19-2.44-9.38-1.46-3.51,1.08-6.23,3.83-7.49,7.24-.98,2.67-1.23,5.55-1.03,8.42-1.15-1.09-2.34-2.15-3.58-3.15-1.47-1.2-3.03-2.32-4.79-3.07-2.07-.88-4-.77-6.13-.3-2.81.62-5.59,2.05-7.51,4.22-1.61,1.81-2.51,3.95-2.93,6.21-1.04.26-2.06.61-3,1.03-2.99,1.32-5.75,3.74-5.98,7.21-.1,1.55.19,3.05.7,4.49-.52.6-.96,1.29-1.32,1.98-1.2,2.31-1.63,4.81-1.46,7.41.32,4.79,2.78,9.15,5.24,13.16,2.85,4.66,6.13,9.08,9.62,13.27,4.15,4.97,8.66,9.66,13.56,13.89,5.01,4.31,19.64,14.48,25.59,17.39.7.34,1.41.67,2.12.98,1.04.46,2.5.16,3.42-.45.6-.4,6.95.63,5.85.2-29.9-11.82-51.49-40.63-54.51-45.31-.62-.96-1.23-1.93-1.81-2.92-.07-.12-.14-.23-.2-.35-.02-.03-.04-.06-.05-.09-.13-.23-.27-.47-.4-.7-.24-.42-.47-.85-.69-1.28-1.02-1.95-1.91-3.96-2.44-6.1-.2-.82-.35-1.64-.43-2.48-.03-.35-.06-.71-.07-1.06,0-.07,0-.15,0-.22,0-.04,0-.09,0-.1,0-.19.01-.39.02-.58.06-1,.24-2,.53-2.96.5.07,1.04,0,1.49-.14.57-.17,1.19-.4,1.61-.84.23-.24.66-.74.46-1.11-.44-.81-.84-1.64-1.17-2.5,0,0,0,0,0,0-.11-.29-.21-.58-.3-.87-.3-.94-.41-1.86-.53-2.83,0,0,0,0,0-.01,0-.09,0-.18,0-.28,0-.21.03-.41.05-.62.05-.35.12-.71.23-1.05.04-.14.1-.27.14-.4.04-.07.07-.14.11-.21.15-.28.32-.55.51-.81.03-.04.05-.07.08-.11.09-.1.18-.19.27-.29.11-.11.22-.21.34-.31.03-.02.06-.05.09-.07.21-.14.42-.3.64-.43.08-.05.16-.1.25-.14.03-.01.05-.03.08-.04.26-.12.52-.24.79-.34.06-.02.12-.05.18-.07,0,0,.01,0,.02,0,.02,0,.04-.01.06-.02-.04,1.62.11,3.27.37,4.86.18,1.1,2.05,1.04,2.81.81.92-.27,2.22-.96,2.03-2.11-.3-1.85-.45-3.57-.29-5.39.06-.11.11-.23.13-.36.03-.18.02-.33-.03-.46.03-.21.06-.43.1-.65.08-.42.17-.84.29-1.26.06-.21.13-.41.19-.61,0-.01,0-.02,0-.03,0,0,0-.01,0-.02.05-.11.09-.22.14-.34.3-.71.68-1.37,1.12-2,0-.01.01-.02.02-.03.02-.02.04-.04.06-.07.11-.13.22-.26.33-.38.23-.25.48-.49.73-.72,0,0,0,0,.01-.01.12-.09.24-.18.36-.27.25-.18.51-.34.77-.51.1-.05.2-.1.29-.15.2-.1.4-.18.6-.27.03-.02.18-.08.3-.12.08-.03.16-.06.23-.09-.05.02-.1.04-.15.06.22-.07.45-.14.68-.2.19-.05.38-.09.57-.13.25-.04.5-.07.75-.09.09,0,.22.01.31.02,0,0,.01,0,.02,0,.19.05.37.11.55.17.04.01.08.03.12.05,0,0,0,0,0,0,0,0,0,0,.01.01.04.01.07.03.11.04.14.05.14.07.09.07.12.05.25.1.29.12.39.2.76.41,1.13.64.75.47,1.47.98,2.17,1.52.35.27.7.55,1.04.84.06.06.35.29.39.33.22.19.44.39.66.58.73.65,1.44,1.31,2.13,1.99,1.99,1.93,3.91,3.96,5.71,6.07.68.8,2.07.64,2.93.33.7-.25,2.06-1.03,1.71-1.99-.44-1.22-.75-2.5-1.02-3.76-.26-1.24-.47-2.5-.59-3.77-.03-.35-.06-.7-.08-1.05,0-.08,0-.16-.01-.25,0,0,0-.02,0-.03,0-.21-.01-.41-.01-.62,0-.73.02-1.46.09-2.18.07-.76.18-1.51.35-2.25.07-.33.16-.66.26-.98.04-.15.09-.29.14-.44,0,.01.12-.31.15-.39.28-.67.62-1.32,1.03-1.93.02-.04.17-.24.23-.32.07-.08.2-.24.24-.29.27-.31.57-.6.87-.88.08-.06.16-.12.23-.18.14-.1.28-.19.42-.28.02-.01.03-.02.04-.03.02,0,.03-.01.05-.02.13-.06.27-.12.41-.18.06-.02.13-.05.17-.06.03,0,.11-.03.18-.04.1-.01.25-.04.29-.04.04,0,.09,0,.13,0-.01,0-.03,0-.04-.01.02,0,.04,0,.05.01.02,0,.05,0,.07,0,.16-.02.22.02.17.04.21.01.44,0,.61.02.02,0,.04,0,.06,0,0,0,0,0,.01,0,.18.04.36.08.54.13.31.09.62.19.93.3.08.03.15.06.19.07.13.06.25.11.38.17,1.12.54,2.16,1.24,3.13,2.02.11.08.21.17.32.26-.03-.02-.04-.04-.06-.05.03.02.06.05.1.09.18.15.35.31.52.47.28.26.55.52.81.79.6.62.94,1.39,1.38,2.13,1,1.67,2.08,3.29,3.25,4.84,1.06,1.4,2.2,2.75,3.42,4.03.09.19.24.36.45.51.02.01.05.02.07.04,3.26,3.32,7.04,6.13,11.25,8.13,5.4,2.57,11.32,3.88,17.3,3.96,5.76.07,11.51-.82,17.01-2.54,2.6-.81,5.2-1.77,7.66-2.94,2.67-1.27,5.06-2.97,7.3-4.87,4.65-3.94,8.5-8.8,11.97-13.78,3.21-4.61,6.09-9.46,8.73-14.42,1.47-2.77,2.89-5.58,4.18-8.45.06-.14.13-.28.19-.42,1.04-2.37-3.81-2.09-4.57-.35Zm-120.18,29h0s0,0,0,0Zm.04.01s0,0,0,0c0,0,.01,0,.02,0-.01,0-.02,0-.03,0Zm92.32-22.14c-.13.05-.28.12-.25.1.07-.04.16-.07.25-.1Zm-1.64,1.02s.02-.02.03-.03c.13-.14.06-.06-.03.03Zm6.17,27.34c-.26.24-.52.47-.79.7-.06.05-.49.43-.24.21.23-.21-.17.14-.24.2-1.07.87-2.18,1.69-3.35,2.42-.25.16-.51.31-.76.46-.02,0-.03.01-.04.02-.14.08-.28.15-.43.23-.55.28-1.1.54-1.67.79-1.16.51-2.35.98-3.54,1.42-.01,0-.02,0-.03.01-.12.04-.25.09-.37.13-.33.11-.65.22-.98.33-.62.2-1.24.39-1.86.57-1.29.37-2.59.69-3.91.96-.32.07-.64.12-.95.19,0,0,0,0,0,0-.19.03-.38.07-.57.1-.66.11-1.33.2-2,.29-1.37.17-2.75.28-4.13.33-.17,0-.34.01-.51.02-.03,0-.1,0-.17,0-.08,0-.32,0-.38,0-.2,0-.39,0-.59,0-.69,0-1.37-.04-2.06-.08-1.41-.09-2.81-.25-4.2-.48-.03,0-.06,0-.08-.01-.01,0-.02,0-.03,0-.17-.03-.34-.06-.51-.1-.37-.07-.74-.15-1.1-.23-.69-.16-1.37-.33-2.05-.53-.71-.2-1.41-.43-2.11-.68-.31-.11-.63-.23-.94-.35-.17-.06-.34-.13-.5-.2-.08-.03-.32-.13-.42-.17-.09-.04-.29-.13-.35-.15-.17-.07-.33-.15-.5-.23-.36-.17-.71-.34-1.07-.51-.67-.34-1.32-.69-1.97-1.07-1.36-.79-2.66-1.66-3.91-2.61-.32-.24-.63-.49-.94-.74-.35-.29-.37-.3-.79-.66-.59-.52-1.17-1.06-1.73-1.61,1.98-1.57,3.84-3.32,5.59-5.12,1.84-1.9,3.55-3.94,4.98-6.17.79-1.24,1.53-2.51,2.12-3.86.27-.62.5-1.25.7-1.9.1-.31.23-.66.31-1,.19-.26.32-.63.47-.9.16-.28.32-.56.48-.84.09-.15.18-.3.27-.45.04-.07.09-.14.13-.2.51-.77,1.05-1.51,1.63-2.22.31-.38.64-.74.98-1.09.07-.07.14-.14.2-.21.17-.16.34-.31.52-.46.18-.15.36-.29.55-.43.23-.16,1-.57.2-.16.2-.1.39-.22.59-.32.08-.04.17-.08.26-.12,0,0,0,0,.01,0,.12-.04.23-.07.35-.1-.04,0-.09,0-.14,0,0,0,0,0,0,0,.06,0,.13-.01.19-.02.01,0,.03,0,.04-.01.13-.03.27-.03.26-.01.01,0,.03,0,.04,0,.08,0,.16.01.23.03.04,0,.12.02.2.04.01,0,.03,0,.04.01.11.04.22.08.33.12.07.03.14.06.21.09-.02-.02-.04-.03-.06-.05.04.03.08.05.12.07.02,0,.04.02.07.03.06.03.11.06.11.08.51.31.98.69,1.43,1.08.11.1.27.21.36.33-.26-.37,0,0,.09.09.24.25.47.5.68.76.43.52.83,1.07,1.19,1.64.17.26.32.53.48.8.08.14.15.27.22.41.02.04.09.18.14.28.03.07.12.25.14.3.06.14.12.28.18.42.13.3.24.6.36.9.41,1.12.74,2.28.98,3.46.21,1.05.36,2.1.45,3.17,0,.1.01.2.02.3.01.22.02.44.03.66,0,.37.01.74,0,1.1,0,.28-.02.56-.05.84-.09.93.8,1.55,1.63,1.64,1.04.11,2.16-.25,2.86-1.05,1.86-2.16,3.66-4.37,5.43-6.61,1.43-1.82,2.83-3.67,4.15-5.58.65-.95,1.28-1.91,1.87-2.9.22-.37.44-.75.64-1.14.08-.16.16-.32.24-.48.07-.13.13-.27.2-.4.03-.05.06-.1.08-.15.14-.2.28-.4.44-.58.09-.11.19-.22.28-.32,0,0,0,0,.01-.01.21-.14.41-.36.61-.51.06-.04.12-.08.18-.12-.03.02-.07.03-.11.05.06-.03.12-.07.18-.1.02-.01.03-.02.05-.03.08-.06.18-.09.15-.07.18-.09.35-.19.54-.27.07-.03.13-.05.2-.08.05-.01.09-.02.13-.04.24-.07.49-.13.73-.19.11-.01.22-.03.32-.04.26-.02.52-.02.78-.04.14.01.27.02.41.03.26.03.51.08.77.12.15.04.29.09.44.13.25.08.49.18.73.29.02,0,.04.02.06.03.11.06.22.12.32.18.24.15.48.31.7.49.1.08.19.16.29.24.01.01.06.05.1.08,0,0,0,0,0,0,.29.31.55.63.78.98.1.15.19.3.27.46.05.09.09.17.14.26.36.83.67,1.66.91,2.53.3,1.05.52,2.13.69,3.21.09.58.17,1.17.24,1.75.03.28.06.56.08.84.01.12.02.24.03.36,0,.07,0,.14.01.21.15,2.41.11,4.84-.2,7.23-.14,1.09-.36,2.15-.63,3.21,0,.01,0,.03-.01.04-.03.11-.06.21-.1.32-.08.26-.17.51-.27.76-.16.43-.35.85-.56,1.26-.09.17-.19.34-.29.51-.05.08-.11.16-.16.23-.24.33-.43.71-.42,1.12-.1.1-.2.21-.3.31-.51.5-1.02.99-1.55,1.47Z"/>
            <path class="cls-2" d="m41.19,191.66s-.08.03-.13.05c-.06.02-.11.05-.17.08-.03.02.05,0,.38-.15-.02,0-.04.01-.06.02,0,0-.02,0-.03,0Z"/>
            <path class="cls-2" d="m44.28,191.46s0,0,0,0c.04.07.15.1.2.11-.09-.04-.17-.08-.2-.11Z"/>
            <path class="cls-2" d="m66.21,182.03c.14.04.22.05.26.03-.09,0-.17-.02-.24-.04,0,0,0,0-.01,0Z"/>
            <path class="cls-2" d="m108.1,170.81s-.1.01-.14.02c-.02,0-.04.01-.06.02.26-.01.35-.03.36-.04-.05,0-.11,0-.16,0Z"/>
            <path class="cls-2" d="m109.54,171.22s-.07-.05-.1-.07c-.02-.01-.05-.03-.07-.04-.02,0-.04-.02-.05-.02.17.12.23.15.23.13Z"/>
            <path class="cls-2" d="m134.95,169.48s-.02.01-.03.02c-.02.02-.05.03-.07.05.17-.08.24-.13.26-.15-.05.03-.11.05-.16.08Z"/>
          </g>
          <g>
            <path class="cls-2" d="m149.99,93.68c-6.61,4.08-13.8,4.71-14.27,4.75-1.37.11-2.56-.91-2.67-2.28s.91-2.56,2.28-2.67c.2-.02,15.06-1.38,19.48-12.62.5-1.28,1.94-1.9,3.22-1.4,1.28.5,1.9,1.94,1.4,3.22-2.03,5.17-5.64,8.66-9.44,11Z"/>
            <path class="cls-2" d="m83.49,80.7c-8.45,0-15.32-6.87-15.32-15.32,0-1.6,1.3-2.89,2.89-2.89s2.89,1.3,2.89,2.89c0,5.26,4.28,9.54,9.54,9.54s9.54-4.28,9.54-9.54c0-1.6,1.3-2.89,2.89-2.89s2.89,1.3,2.89,2.89c0,8.45-6.87,15.32-15.32,15.32Z"/>
            <path class="cls-2" d="m123.77,80.33c-8.45,0-15.32-6.87-15.32-15.32,0-1.6,1.3-2.89,2.89-2.89s2.89,1.3,2.89,2.89c0,5.26,4.28,9.54,9.54,9.54s9.54-4.28,9.54-9.54c0-1.6,1.3-2.89,2.89-2.89s2.89,1.3,2.89,2.89c0,8.45-6.87,15.32-15.32,15.32Z"/>
          </g>
        </g>
      </g>
    </g>
  </g>
</svg>