<?xml version="1.0" encoding="UTF-8"?>
<svg id="Capa_2" data-name="Capa 2" xmlns="http://www.w3.org/2000/svg" viewBox="0 0 104.47 75.62">
  <defs>
    <style>
      .cls-1 {
        fill: #d5f3ff;
      }
    </style>
  </defs>
  <g id="Capa_3" data-name="Capa 3">
    <g>
      <path class="cls-1" d="m73.7,47.35v-2.71c0-1.75-1.86-2.86-3.4-2.05l-26.21,13.91c-.7.37-1.53.36-2.22-.03l-26.17-14.71c-1.54-.87-3.45.25-3.45,2.02v13.69c0,.84.46,1.61,1.19,2.02l28.41,15.82c.7.39,1.55.39,2.25,0l23.67-13.18c-.67-1.45-1.04-3.08-1.04-4.76,0-.88.12-1.76.35-2.59,1.03-3.72,3.8-6,6.62-7.44Z"/>
      <path class="cls-1" d="m104.25,55.73c-1.23-4.47-6.48-6.24-10.49-7.21-.95-.23-1.95-.4-2.96-.53v-22.61l.24-.13c.24-.13.23-.47,0-.59L44.02.32c-.85-.44-1.86-.42-2.7.04L1.47,22.5c-1.94,1.08-1.96,3.86-.03,4.97l39.86,22.83c.85.49,1.9.5,2.76.04l39.8-21.25v18.9c-.99.12-1.97.29-2.91.52-2.34.57-5.1,1.41-7.24,2.9-1.53,1.06-2.74,2.45-3.26,4.31-.15.54-.22,1.1-.22,1.66,0,1.05.22,2.09.62,3.05.22.52.48,1.02.82,1.47.9,1.19,2.2,2.07,3.64,2.47l.1.02s.23.02.62.02c2.36,0,10.72-.76,11.32-11.52v-1.24c0,.21.01.41.02.62,0-.21.02-.41.02-.62v1.24c.6,10.75,8.96,11.52,11.32,11.52.39,0,.62-.02.62-.02,1.47-.39,2.79-1.29,3.71-2.5.98-1.29,1.44-2.91,1.44-4.52,0-.56-.07-1.12-.22-1.66Z"/>
    </g>
  </g>
</svg>