<?xml version="1.0" encoding="UTF-8"?>
<svg id="Capa_2" data-name="Capa 2" xmlns="http://www.w3.org/2000/svg" viewBox="0 0 86.32 84.93">
  <defs>
    <style>
      .cls-1 {
        fill: #d2f3ff;
      }
    </style>
  </defs>
  <g id="Capa_3" data-name="Capa 3">
    <g>
      <path class="cls-1" d="m52.7,64.18l-1.22.58c-3.3,1.58-7.23.45-9.16-2.62-.03-.04-.05-.08-.08-.13-1.36-2.24-1.25-4.69.33-6.93h-7.84c-.48,0-.92-.18-1.26-.49-.17-.15-.32-.34-.42-.56l-1.45-2.95-1.87-3.81-.56-1.14c-.37-.75-.87-1.37-1.47-1.8-1.31-.95-2.22-.62-2.86-.23l-.09.05c-1.45.91-1.97,2.77-1.22,4.34l1.86,3.9c.28.58.24,1.26-.11,1.81-.34.55-.94.88-1.59.88H5C2.25,55.08,0,57.32,0,60.08v1.88h17.92c1.2,0,2.19.9,2.33,2.06.01.09.02.19.02.29,0,1.3-1.05,2.35-2.35,2.35H0v6.17h17.92c1.3,0,2.35,1.05,2.35,2.35s-1.05,2.35-2.35,2.35H0v2.38c0,2.75,2.24,5,5,5h49.25c-.98-1.41-1.55-3.13-1.55-4.97v-15.75Z"/>
      <path class="cls-1" d="m65.57,33.63l.58,1.22c1.57,3.3.45,7.23-2.62,9.16-.04.03-.09.05-.14.08-1.03.63-2.11.94-3.19.94-1.27,0-2.54-.43-3.74-1.28v6.4c0,.44-.15.85-.42,1.18-.17.21-.38.38-.63.51l-2.79,1.37-3.83,1.88-1.3.64c-.75.37-1.38.88-1.81,1.47-.95,1.31-.62,2.22-.23,2.87l.05.08c.91,1.45,2.78,1.98,4.35,1.22l3.91-1.87c.58-.28,1.27-.24,1.81.1.55.35.88.95.88,1.59v18.73c0,2.57,1.95,4.7,4.46,4.97.18.02.36.03.55.03h3.08c-.11-.02-.22-.03-.34-.03h-.86v-17.92c0-.73.34-1.39.86-1.82.41-.33.92-.53,1.49-.53,1.3,0,2.35,1.05,2.35,2.35v17.95h6.18v-17.95c0-1.3,1.05-2.35,2.35-2.35s2.35,1.05,2.35,2.35v17.95h2.38c2.76,0,5-2.25,5-5v-47.87c-1.42.99-3.14,1.57-5,1.57h-15.75Z"/>
      <path class="cls-1" d="m68.37,7.39h17.95v-2.38C86.32,2.25,84.07,0,81.31,0H31.91c.98,1.41,1.56,3.13,1.56,4.97v15.68l1.21-.58c3.28-1.57,7.2-.45,9.12,2.61l.08.13c1.38,2.26,1.23,4.75-.4,7-.01.02-.02.03-.04.05h8.09c.43,0,.84.15,1.16.4.22.17.4.39.53.65l1.35,2.76,1.88,3.84.65,1.32c.37.75.88,1.38,1.47,1.81,1.32.95,2.22.62,2.87.23l.09-.05c1.45-.91,1.97-2.78,1.22-4.35l-1.87-3.91c-.28-.58-.24-1.27.1-1.81.35-.55.94-.88,1.59-.88h18.73c2.76,0,5-2.24,5-5v-1.88h-17.95c-1.3,0-2.35-1.05-2.35-2.35s1.05-2.35,2.35-2.35h17.95v-6.18h-17.95c-1.3,0-2.35-1.05-2.35-2.35s1.05-2.35,2.35-2.35Z"/>
      <path class="cls-1" d="m20.73,51.32l-.58-1.22c-1.57-3.29-.45-7.22,2.61-9.14l.12-.08c2.21-1.35,4.63-1.25,6.85.27v-6.53c0-.36.1-.71.29-1,.18-.29.44-.52.76-.68l2.45-1.2,3.83-1.88,1.6-.78c.75-.37,1.37-.87,1.8-1.46.95-1.31.62-2.21.23-2.86l-.05-.09c-.9-1.44-2.76-1.96-4.33-1.22l-3.89,1.86c-.58.28-1.26.24-1.81-.1-.54-.34-.87-.94-.87-1.59V4.98C29.73,2.33,27.65.16,25.04,0c-.1,0-.19,0-.29,0h-1.86v17.67c0,.73-.34,1.39-.86,1.82-.41.33-.92.53-1.49.53-1.3,0-2.35-1.05-2.35-2.35V0h-6.15v17.87c0,1.29-1.05,2.34-2.34,2.34s-2.34-1.05-2.34-2.34V0h-2.37C2.23,0,0,2.23,0,4.98v47.91c1.42-.99,3.14-1.57,5-1.57h15.72Z"/>
      <path class="cls-1" d="m22.02,0h-.19c.07,0,.13,0,.19,0h0Z"/>
    </g>
  </g>
</svg>