<?xml version="1.0" encoding="UTF-8"?>
<svg id="Capa_2" data-name="Capa 2" xmlns="http://www.w3.org/2000/svg" viewBox="0 0 86.32 76.81">
  <defs>
    <style>
      .cls-1 {
        fill: #d2f3ff;
      }
    </style>
  </defs>
  <g id="Capa_3" data-name="Capa 3">
    <path class="cls-1" d="m86.25,23.81c-.94-12.32-10.73-22.4-23.02-23.67-7.72-.79-14.85,1.83-20.06,6.53C37.95,1.97,30.83-.65,23.1.14,10.81,1.41,1.02,11.5.08,23.81c-.04.49-.06.98-.07,1.46-.15,6.47,2.59,12.68,7.15,17.27l5.45,5.5,27.05,27.3c1.93,1.95,5.09,1.95,7.02,0l27.05-27.3,5.45-5.5c4.56-4.59,7.3-10.8,7.15-17.27-.01-.48-.03-.97-.07-1.46Zm-30.21,19.63h-6.02v6.02c0,3.79-3.07,6.85-6.85,6.85s-6.85-3.07-6.85-6.85v-6.02h-6.02c-3.79,0-6.85-3.07-6.85-6.85s3.07-6.85,6.85-6.85h6.02v-6.02c0-3.79,3.07-6.85,6.85-6.85s6.85,3.07,6.85,6.85v6.02h6.02c3.79,0,6.85,3.07,6.85,6.85s-3.07,6.85-6.85,6.85Z"/>
  </g>
</svg>