<?xml version="1.0" encoding="UTF-8"?>
<svg id="Capa_2" data-name="Capa 2" xmlns="http://www.w3.org/2000/svg" xmlns:xlink="http://www.w3.org/1999/xlink" viewBox="0 0 287.34 327.64">
  <defs>
    <style>
      .cls-1 {
        fill: #d2f3ff;
      }

      .cls-2 {
        fill: #0b6ff9;
      }

      .cls-3 {
        clip-path: url(#clippath);
      }

      .cls-4 {
        fill: none;
      }
    </style>
    <clipPath id="clippath">
      <circle class="cls-4" cx="143.67" cy="183.97" r="143.67"/>
    </clipPath>
  </defs>
  <g id="Capa_1-2" data-name="Capa 1">
    <g>
      <path class="cls-1" d="m159.19,33.49c1.81.8,3.71,1.5,5.67,2.1l-1.54,8.51c2.29.29,4.58.64,6.88,1.05,2.33.42,4.63.91,6.9,1.44l1.54-8.53c2.01.11,4.01.13,5.95.01,8.3-.49,19.34-2.12,23.38-10.54.49-1.02.83-2.11,1.03-3.22.58-3.2.24-6.56-1.24-9.48-1.36-2.68-3.63-4.89-6.33-6.21l-.19-.08s-21.91-6.08-27.78,18.52l-.45,2.47c.08-.43.13-.83.19-1.24-.09.41-.18.8-.26,1.23l.45-2.47C176.5,1.97,153.85,0,153.85,0c-3.05.26-5.99,1.55-8.25,3.62-2.41,2.21-3.9,5.25-4.47,8.45-.2,1.11-.26,2.25-.16,3.38.85,9.3,10.61,14.68,18.22,18.05Z"/>
      <g class="cls-3">
        <circle class="cls-1" cx="143.67" cy="183.97" r="143.67"/>
        <circle class="cls-1" cx="143.67" cy="183.97" r="143.67"/>
        <path class="cls-2" d="m157.5,191.21c-3.04.34-5.92,2.05-7.31,4.99-2.75,5.83-13.8,18.64-13.8,18.64.33-3.19-.22-14.63-7.92-20.13-7.7-5.5-14.79,9.29-14.79,9.29-2.64,11-16.63,20.97-16.63,20.97-3.19-3.34-6.17-7.37-8.86-12.21,0,0-9.51-11-16.94-3.52-7.43,7.48-1.88,22.87-1.88,22.87,0,0-12.69-14.95-18.58-14.95,0,0-10.99.03-12.21,11.74-.18.02-.55.06-1.04.15-.58-1.65-9.97-29.41,8.1-43.11,18.62-14.12,37.38-5.03,37.38-5.03,0,0,10.12-29.03,32.41-28.15,22.28.88,40.13,18.42,42.06,38.46Z"/>
        <g>
          <path class="cls-2" d="m83.2,212.11c-.09-.08-.13-.1,0,0h0Z"/>
          <path class="cls-2" d="m187.57,185.97c-1.03,2.35-2.17,4.66-3.34,6.95-2.72,5.35-5.67,10.58-8.92,15.63-.94,1.47-1.91,2.92-2.91,4.34-.27.39-.55.77-.83,1.16.16-1.67.2-3.34.17-5.01-.06-2.92-.34-5.86-.97-8.71-.49-2.23-1.19-4.56-2.48-6.47-1.7-2.53-4.68-4.03-7.64-4.45-3.43-.49-7.02.4-9.84,2.4-1.39.98-2.51,2.29-3.33,3.76-.52.92-.96,1.87-1.52,2.78-.07.11-.13.22-.2.32-.17.27-.35.53-.52.8-.37.55-.74,1.09-1.12,1.62-.8,1.14-1.63,2.26-2.48,3.37-1.01,1.32-2.04,2.62-3.08,3.91-.43-2.81-1.26-5.5-2.5-8.06-1.39-2.86-3.53-5.64-6.28-7.31-2.84-1.72-6.15-1.71-9.13-.32-4.25,1.98-7.25,6.24-9.44,10.24-.17.32-.38.64-.51.98-.12.31-.19.67-.27.99,0,0,0,0,0,.01,0,.03-.02.06-.03.1-.07.22-.14.44-.22.66-.26.74-.55,1.45-.89,2.16-.34.72-.71,1.42-1.11,2.1-.18.31-.35.64-.56.93-.03.04-.06.08-.08.12-.13.2-.27.4-.4.6-.9,1.31-1.89,2.56-2.94,3.76-.98,1.13-2.02,2.22-3.09,3.27-.12.12-.24.23-.35.34,0,0,0,0,0,0-.25.23-.49.47-.75.7-.45.42-.91.83-1.38,1.23-.41.36-.84.71-1.26,1.06-.39-.45-.77-.91-1.14-1.37-1.37-1.71-2.63-3.5-3.8-5.34-.61-.97-1.2-1.95-1.76-2.94-.15-.27-.25-.45-.45-.67-1.56-1.69-3.4-3.22-5.39-4.39-3.22-1.9-7.1-2.8-10.75-1.68-4.02,1.23-7.14,4.39-8.58,8.3-1.13,3.06-1.42,6.37-1.18,9.66-1.32-1.25-2.69-2.47-4.1-3.62-1.69-1.37-3.48-2.66-5.49-3.52-2.37-1.01-4.58-.88-7.02-.34-3.22.71-6.41,2.35-8.61,4.84-1.85,2.08-2.88,4.53-3.36,7.11-1.19.3-2.36.7-3.44,1.18-3.42,1.51-6.6,4.29-6.85,8.26-.11,1.78.22,3.5.8,5.15-.6.69-1.1,1.48-1.51,2.27-1.37,2.65-1.87,5.52-1.67,8.49.36,5.49,3.19,10.5,6.01,15.09,3.27,5.35,7.02,10.41,11.04,15.22,4.75,5.7,9.93,11.07,15.55,15.92,5.74,4.95,22.52,16.6,29.34,19.94.8.39,1.62.77,2.43,1.13,1.19.52,2.87.18,3.93-.52.69-.45,7.97.72,6.7.22-34.29-13.55-59.03-46.59-62.5-51.95-.71-1.1-1.41-2.22-2.07-3.35-.08-.13-.16-.26-.23-.4-.02-.04-.04-.07-.06-.11-.15-.27-.31-.54-.46-.8-.27-.48-.54-.97-.79-1.46-1.17-2.23-2.19-4.54-2.79-6.99-.23-.93-.4-1.88-.49-2.84-.04-.41-.07-.81-.08-1.22,0-.09,0-.17,0-.26,0-.04,0-.1,0-.12,0-.22.01-.44.03-.67.07-1.15.27-2.29.6-3.39.57.08,1.19,0,1.71-.16.65-.19,1.36-.46,1.84-.96.27-.28.76-.84.53-1.27-.5-.93-.96-1.88-1.34-2.86,0,0,0,0,0,0-.13-.33-.24-.66-.35-1-.34-1.08-.47-2.13-.6-3.24,0,0,0,0,0-.02,0-.11,0-.21,0-.32.01-.24.03-.47.06-.71.05-.41.14-.81.26-1.2.05-.16.12-.31.16-.46.04-.08.08-.17.12-.25.17-.32.37-.63.58-.93.03-.04.06-.08.09-.12.1-.11.2-.22.31-.33.13-.12.25-.24.39-.36.03-.03.06-.05.1-.08.24-.16.48-.34.74-.49.09-.06.19-.11.28-.16.03-.02.06-.03.09-.05.3-.14.6-.27.9-.39.07-.03.14-.05.21-.08,0,0,.01,0,.02,0,.02,0,.05-.01.07-.02-.05,1.86.12,3.75.42,5.58.21,1.26,2.35,1.19,3.22.93,1.05-.31,2.54-1.1,2.32-2.42-.35-2.12-.52-4.1-.33-6.18.07-.13.12-.27.15-.41.04-.21.02-.38-.04-.53.03-.25.07-.49.11-.74.09-.48.2-.97.33-1.44.07-.24.15-.47.22-.7,0-.01,0-.02,0-.03,0,0,0-.02.01-.03.05-.13.1-.26.16-.39.34-.81.78-1.57,1.28-2.29,0-.01.01-.02.02-.03.02-.02.04-.05.07-.08.13-.15.25-.3.38-.44.26-.29.55-.56.83-.83,0,0,0,0,.01-.01.14-.1.27-.21.41-.31.29-.21.58-.39.88-.58.11-.06.22-.12.34-.17.23-.11.46-.21.69-.3.04-.02.21-.1.34-.14.09-.03.18-.06.27-.1-.06.03-.12.05-.17.07.26-.08.51-.16.78-.22.22-.06.43-.1.65-.15.29-.04.57-.08.86-.1.11,0,.25.01.36.02.01,0,.02,0,.03,0,.21.06.42.12.63.2.05.02.09.04.14.05,0,0,0,0,0-.01,0,0,0,0,.01.01.04.02.08.03.12.05.16.06.16.08.1.08.14.06.28.11.33.13.44.22.88.47,1.3.74.86.53,1.68,1.13,2.49,1.75.4.31.8.64,1.19.96.07.06.4.34.45.38.25.22.51.44.76.67.83.74,1.65,1.51,2.45,2.29,2.28,2.22,4.48,4.53,6.54,6.96.78.92,2.37.74,3.36.38.8-.29,2.36-1.18,1.96-2.29-.5-1.4-.86-2.86-1.17-4.31-.3-1.43-.53-2.87-.67-4.32-.04-.4-.07-.8-.09-1.2,0-.09-.01-.19-.02-.28,0-.01,0-.02,0-.03,0-.24-.01-.47-.01-.71,0-.84.02-1.67.1-2.5.08-.87.21-1.73.4-2.58.09-.38.18-.76.3-1.13.05-.17.11-.34.16-.51,0,.01.14-.36.17-.45.32-.77.71-1.52,1.18-2.21.03-.04.2-.28.26-.37.08-.09.23-.28.28-.33.31-.36.65-.68,1-1.01.09-.07.18-.14.27-.2.16-.11.32-.21.48-.32.02-.01.03-.02.04-.03.02,0,.04-.02.06-.03.15-.07.31-.13.47-.2.07-.02.15-.05.19-.07.04,0,.12-.03.21-.05.12-.02.28-.04.33-.05.05,0,.1,0,.15-.01-.02,0-.03,0-.05-.01.02,0,.04,0,.06.01.03,0,.05,0,.08,0,.18-.02.25.03.2.05.24.01.51,0,.7.02.03,0,.05,0,.07,0,0,0,0,0,.01,0,.21.05.42.09.62.15.36.1.72.22,1.07.35.09.03.17.07.22.09.14.06.29.13.43.2,1.28.62,2.48,1.42,3.59,2.31.12.1.24.2.36.29-.03-.02-.05-.04-.07-.06.03.03.07.06.12.1.2.18.4.36.6.54.32.29.63.6.93.91.69.71,1.08,1.59,1.58,2.44,1.14,1.91,2.39,3.77,3.73,5.55,1.22,1.61,2.53,3.16,3.92,4.62.11.22.27.42.52.58.03.02.06.03.08.04,3.74,3.8,8.07,7.03,12.89,9.32,6.19,2.94,12.98,4.45,19.83,4.54,6.6.08,13.2-.94,19.5-2.92,2.99-.93,5.96-2.03,8.79-3.37,3.06-1.46,5.8-3.41,8.37-5.59,5.34-4.52,9.75-10.09,13.72-15.8,3.68-5.29,6.98-10.85,10.01-16.54,1.69-3.18,3.31-6.4,4.79-9.68.07-.16.14-.32.21-.48,1.19-2.72-4.37-2.4-5.24-.41Zm-137.79,33.25h0s0,0,0,0Zm.05.01s0,0,0,0c.01,0,.01,0,.03,0-.01,0-.02,0-.03,0Zm105.85-25.39c-.14.06-.32.13-.29.11.08-.05.18-.08.29-.11Zm-1.88,1.17s.02-.02.03-.04c.15-.16.07-.07-.03.04Zm7.08,31.35c-.3.27-.6.54-.9.8-.07.06-.56.49-.27.24.27-.24-.19.16-.27.23-1.22,1-2.5,1.94-3.84,2.77-.29.18-.58.35-.87.53-.02.01-.03.02-.04.03-.16.09-.33.18-.49.26-.63.33-1.27.62-1.91.9-1.34.59-2.69,1.13-4.06,1.63-.01,0-.02,0-.04.01-.14.05-.28.1-.43.15-.37.13-.75.25-1.12.37-.71.23-1.42.45-2.13.65-1.48.42-2.97.79-4.48,1.11-.36.08-.73.14-1.09.22,0,0,0,0,0,0-.22.04-.43.07-.65.11-.76.12-1.52.23-2.29.33-1.57.19-3.15.32-4.73.38-.2,0-.39.01-.59.02-.04,0-.11,0-.2,0-.09,0-.36,0-.44,0-.22,0-.45,0-.67,0-.79-.01-1.57-.04-2.36-.09-1.61-.1-3.22-.29-4.82-.55-.03,0-.06-.01-.09-.01-.01,0-.02,0-.04,0-.2-.04-.39-.07-.59-.11-.42-.08-.84-.17-1.26-.27-.79-.18-1.57-.38-2.35-.61-.81-.23-1.62-.49-2.42-.78-.36-.13-.72-.26-1.08-.4-.19-.07-.39-.15-.58-.23-.09-.03-.37-.15-.48-.2-.1-.04-.33-.14-.4-.17-.19-.09-.38-.17-.57-.26-.41-.19-.82-.39-1.22-.59-.76-.38-1.52-.79-2.26-1.22-1.56-.9-3.05-1.91-4.48-3-.36-.28-.72-.56-1.07-.85-.41-.33-.42-.34-.9-.76-.68-.6-1.34-1.21-1.99-1.84,2.27-1.8,4.4-3.81,6.41-5.87,2.11-2.18,4.07-4.52,5.71-7.08.91-1.42,1.76-2.87,2.43-4.42.31-.71.58-1.43.8-2.17.11-.36.27-.76.35-1.15.22-.29.36-.72.54-1.04.18-.32.36-.64.55-.96.1-.17.21-.34.32-.52.05-.08.1-.16.15-.23.58-.88,1.2-1.73,1.87-2.54.36-.43.73-.85,1.12-1.25.08-.08.16-.16.23-.24.2-.18.39-.36.6-.53.2-.17.41-.33.63-.49.26-.19,1.15-.65.23-.18.23-.12.44-.25.67-.37.1-.05.19-.09.29-.14,0,0,.01,0,.02,0,.13-.04.27-.08.4-.12-.05,0-.1,0-.16,0,0,0,0,0,0,0,.07,0,.15-.01.22-.02.01,0,.03,0,.04-.01.15-.04.31-.03.3-.02.02,0,.03,0,.05,0,.09,0,.18.02.27.03.05,0,.14.03.22.04.02,0,.03,0,.04.01.13.04.25.09.38.14.08.03.16.07.24.11-.02-.02-.05-.03-.07-.05.04.03.09.06.14.08.03.01.05.02.08.03.07.03.12.07.12.09.58.36,1.12.79,1.63,1.24.13.11.31.24.41.38-.3-.43-.01,0,.1.11.27.28.53.58.79.88.5.59.95,1.22,1.36,1.88.19.3.37.61.55.92.09.15.17.31.25.47.02.05.11.21.16.32.04.08.13.28.16.34.07.16.14.32.21.48.14.34.28.69.41,1.04.47,1.29.84,2.62,1.12,3.96.25,1.2.41,2.41.52,3.63,0,.11.01.23.02.34.01.25.02.5.03.75.01.42.01.84,0,1.26-.01.32-.03.65-.06.97-.11,1.06.92,1.78,1.87,1.88,1.19.12,2.48-.28,3.28-1.21,2.13-2.47,4.2-5.01,6.22-7.58,1.64-2.09,3.25-4.21,4.76-6.39.75-1.08,1.47-2.19,2.14-3.32.26-.43.5-.86.73-1.31.09-.18.18-.37.27-.55.08-.15.15-.31.23-.46.03-.06.07-.11.1-.17.16-.22.32-.45.5-.67.11-.13.21-.25.33-.37,0,0,.01-.01.02-.02.24-.16.47-.41.7-.58.07-.05.14-.1.21-.14-.04.02-.07.04-.12.06.07-.03.14-.08.2-.12.02-.01.04-.02.05-.04.09-.07.21-.11.17-.08.2-.11.41-.21.62-.31.08-.03.15-.06.23-.1.05-.01.11-.03.15-.04.28-.08.56-.15.84-.21.12-.02.25-.03.37-.04.3-.03.6-.02.89-.04.16.01.31.02.47.04.3.03.59.09.88.14.17.05.33.1.5.15.28.1.56.21.84.33.02.01.05.02.07.04.12.07.25.14.37.21.28.17.55.36.81.56.11.09.22.18.33.27.01.01.06.05.11.1,0,0,0,0,0,0,.33.36.64.72.9,1.13.11.17.21.35.31.52.06.1.11.2.16.3.41.95.77,1.9,1.05,2.9.34,1.21.59,2.44.79,3.68.11.67.2,1.34.27,2.01.04.32.07.64.1.96.01.14.02.27.03.41,0,.08.01.16.02.24.18,2.76.13,5.55-.23,8.3-.16,1.25-.42,2.47-.72,3.68,0,.02-.01.03-.02.05-.04.12-.07.24-.11.36-.1.29-.2.59-.31.88-.19.49-.4.97-.64,1.44-.1.2-.22.39-.33.59-.06.09-.12.18-.19.27-.28.38-.5.82-.48,1.29-.12.12-.23.24-.35.36-.58.58-1.17,1.14-1.78,1.69Z"/>
          <path class="cls-2" d="m47.23,219.76s-.1.04-.14.06c-.07.03-.13.06-.2.09-.04.02.06-.01.44-.17-.02,0-.04.01-.07.02,0,0-.02,0-.03.01Z"/>
          <path class="cls-2" d="m50.78,219.53s0,0,0,0c.05.08.17.12.23.12-.1-.04-.2-.09-.23-.12Z"/>
          <path class="cls-2" d="m75.91,208.71c.16.05.26.05.29.04-.1,0-.19-.02-.28-.04,0,0,0,0-.01,0Z"/>
          <path class="cls-2" d="m123.95,195.85c-.05,0-.11.01-.16.02-.02,0-.05.01-.07.02.29-.02.4-.03.41-.05-.06,0-.12,0-.18,0Z"/>
          <path class="cls-2" d="m125.59,196.31s-.08-.05-.12-.08c-.03-.02-.05-.03-.08-.04-.02,0-.04-.02-.06-.03.19.14.27.17.26.15Z"/>
          <path class="cls-2" d="m154.73,194.32s-.02.01-.03.02c-.03.02-.05.04-.08.06.19-.1.28-.15.3-.17-.06.03-.13.06-.19.09Z"/>
        </g>
        <g>
          <path class="cls-2" d="m171.97,107.41c-7.58,4.68-15.82,5.4-16.36,5.44-1.57.12-2.94-1.05-3.06-2.61-.12-1.57,1.05-2.93,2.61-3.06.22-.02,17.27-1.58,22.34-14.47.58-1.46,2.23-2.18,3.69-1.61,1.46.58,2.18,2.23,1.61,3.69-2.33,5.93-6.47,9.93-10.83,12.62Z"/>
          <path class="cls-2" d="m95.73,92.53c-9.69,0-17.57-7.88-17.57-17.57,0-1.83,1.49-3.32,3.32-3.32s3.32,1.49,3.32,3.32c0,6.03,4.91,10.93,10.93,10.93s10.93-4.91,10.93-10.93c0-1.83,1.49-3.32,3.32-3.32s3.32,1.49,3.32,3.32c0,9.69-7.88,17.57-17.57,17.57Z"/>
          <path class="cls-2" d="m141.91,92.11c-9.69,0-17.57-7.88-17.57-17.57,0-1.83,1.49-3.32,3.32-3.32s3.32,1.49,3.32,3.32c0,6.03,4.91,10.93,10.93,10.93s10.93-4.91,10.93-10.93c0-1.83,1.49-3.32,3.32-3.32s3.32,1.49,3.32,3.32c0,9.69-7.88,17.57-17.57,17.57Z"/>
        </g>
      </g>
    </g>
  </g>
</svg>